<svg xmlns="http://www.w3.org/2000/svg" xmlns:xlink="http://www.w3.org/1999/xlink" fill="none" version="1.1" width="96" height="96" viewBox="0 0 96 96"><defs><clipPath id="master_svg0_29_96027"><rect x="24" y="12" width="48" height="48" rx="0"/></clipPath></defs><g><rect x="0" y="0" width="96" height="96" rx="8" fill="#F5F5F5" fill-opacity="1"/><g><path d="M21.27,75.672L22.998,75.672L25.122,81.036L25.194,81.036L27.318,75.672L29.022,75.672L29.022,84L27.942,84L27.942,76.764L27.87,76.764L25.734,82.116L24.558,82.116L22.398,76.764L22.326,76.764L22.326,84L21.27,84L21.27,75.672ZM33.834,84.12Q33.114,84.12,32.556,83.958Q31.998,83.79599999999999,31.614,83.406Q31.23,83.016,31.032,82.374Q30.834,81.732,30.834,80.76Q30.834,79.788,31.032,79.146Q31.23,78.504,31.614,78.114Q31.998,77.724,32.556,77.562Q33.114,77.4,33.834,77.4Q34.554,77.4,35.112,77.562Q35.67,77.724,36.048,78.114Q36.426,78.504,36.624,79.146Q36.822,79.788,36.822,80.76Q36.822,81.732,36.624,82.374Q36.426,83.016,36.048,83.406Q35.67,83.79599999999999,35.112,83.958Q34.554,84.12,33.834,84.12ZM33.834,83.244Q34.386,83.244,34.752,83.124Q35.118,83.004,35.334,82.716Q35.55,82.428,35.64,81.94800000000001Q35.73,81.468,35.73,80.76Q35.73,80.05199999999999,35.634,79.572Q35.538,79.092,35.316,78.804Q35.094,78.516,34.728,78.39Q34.362,78.264,33.834,78.264Q33.294,78.264,32.928,78.39Q32.562,78.516,32.34,78.804Q32.118,79.092,32.028,79.572Q31.938,80.05199999999999,31.938,80.76Q31.938,81.468,32.034,81.94800000000001Q32.13,82.428,32.358,82.716Q32.586,83.004,32.946,83.124Q33.306,83.244,33.834,83.244ZM41.742,77.4Q42.378,77.4,42.798,77.556Q43.218,77.712,43.464,77.994Q43.71,78.276,43.812,78.66Q43.914,79.044,43.914,79.512L43.914,84L42.87,84L42.87,79.896Q42.87,79.524,42.822,79.23Q42.774,78.936,42.636,78.738Q42.498,78.54,42.258,78.432Q42.018,78.324,41.634,78.324Q41.322,78.324,41.028,78.366Q40.734,78.408,40.476,78.546Q40.218,78.684,40.008,78.936Q39.798,79.188,39.666,79.62L39.666,84L38.634,84L38.634,77.52L39.666,77.52L39.666,78.444Q39.81,78.132,40.044,77.928Q40.278,77.724,40.554,77.61Q40.83,77.496,41.136,77.44800000000001Q41.442,77.4,41.742,77.4ZM51.498,77.52L51.498,83.544Q51.498,84.888,50.736,85.644Q49.974,86.4,48.33,86.4Q47.91,86.4,47.49,86.352Q47.07,86.304,46.758,86.244L46.758,85.368Q47.49,85.512,48.342,85.512Q49.422,85.512,49.944,85.032Q50.466,84.55199999999999,50.466,83.436L50.466,82.788Q50.262,83.364,49.782,83.682Q49.302,84,48.366,84Q47.55,84,47.034,83.76Q46.518,83.52,46.212,83.088Q45.906,82.656,45.792,82.05Q45.678,81.444,45.678,80.7Q45.678,80.028,45.792,79.428Q45.906,78.828,46.212,78.378Q46.518,77.928,47.034,77.664Q47.55,77.4,48.366,77.4Q48.858,77.4,49.212,77.502Q49.566,77.604,49.812,77.778Q50.058,77.952,50.214,78.19800000000001Q50.37,78.444,50.466,78.732L50.466,77.52L51.498,77.52ZM48.51,83.136Q49.098,83.136,49.482,82.974Q49.866,82.812,50.094,82.5Q50.322,82.188,50.412,81.732Q50.502,81.276,50.502,80.7Q50.502,80.148,50.412,79.69200000000001Q50.322,79.236,50.094,78.924Q49.866,78.612,49.482,78.438Q49.098,78.264,48.51,78.264Q47.922,78.264,47.58,78.468Q47.238,78.672,47.058,79.008Q46.878,79.344,46.83,79.788Q46.782,80.232,46.782,80.7Q46.782,81.20400000000001,46.836,81.648Q46.89,82.092,47.07,82.422Q47.25,82.752,47.592,82.944Q47.934,83.136,48.51,83.136ZM56.298,84.12Q55.578,84.12,55.02,83.958Q54.462,83.79599999999999,54.078,83.406Q53.694,83.016,53.496,82.374Q53.298,81.732,53.298,80.76Q53.298,79.788,53.496,79.146Q53.694,78.504,54.078,78.114Q54.462,77.724,55.02,77.562Q55.578,77.4,56.298,77.4Q57.018,77.4,57.576,77.562Q58.134,77.724,58.512,78.114Q58.89,78.504,59.088,79.146Q59.286,79.788,59.286,80.76Q59.286,81.732,59.088,82.374Q58.89,83.016,58.512,83.406Q58.134,83.79599999999999,57.576,83.958Q57.018,84.12,56.298,84.12ZM56.298,83.244Q56.85,83.244,57.216,83.124Q57.582,83.004,57.798,82.716Q58.014,82.428,58.104,81.94800000000001Q58.194,81.468,58.194,80.76Q58.194,80.05199999999999,58.098,79.572Q58.002,79.092,57.78,78.804Q57.558,78.516,57.192,78.39Q56.826,78.264,56.298,78.264Q55.758,78.264,55.392,78.39Q55.026,78.516,54.804,78.804Q54.582,79.092,54.492,79.572Q54.402,80.05199999999999,54.402,80.76Q54.402,81.468,54.498,81.94800000000001Q54.594,82.428,54.822,82.716Q55.05,83.004,55.41,83.124Q55.77,83.244,56.298,83.244ZM63.51,75.672Q64.41,75.672,65.148,75.834Q65.886,75.996,66.414,76.452Q66.942,76.908,67.236,77.724Q67.53,78.54,67.53,79.836Q67.53,81.048,67.236,81.846Q66.942,82.644,66.414,83.124Q65.886,83.604,65.148,83.80199999999999Q64.41,84,63.51,84L61.11,84L61.11,75.672L63.51,75.672ZM63.486,83.05199999999999Q64.134,83.05199999999999,64.674,82.902Q65.214,82.752,65.604,82.386Q65.994,82.02,66.204,81.396Q66.414,80.772,66.414,79.836Q66.414,78.84,66.192,78.21Q65.97,77.58,65.58,77.226Q65.19,76.872,64.656,76.74Q64.122,76.608,63.486,76.608L62.19,76.608L62.19,83.05199999999999L63.486,83.05199999999999ZM69.498,75.672L71.898,75.672Q72.714,75.672,73.254,75.804Q73.794,75.936,74.112,76.212Q74.43,76.488,74.562,76.902Q74.694,77.316,74.694,77.88Q74.694,78.528,74.418,78.984Q74.142,79.44,73.482,79.644L73.482,79.69200000000001Q73.902,79.776,74.19,79.95Q74.478,80.124,74.652,80.376Q74.826,80.628,74.898,80.94Q74.97,81.252,74.97,81.624Q74.97,82.188,74.838,82.632Q74.706,83.076,74.382,83.382Q74.058,83.688,73.512,83.844Q72.966,84,72.138,84L69.498,84L69.498,75.672ZM71.394,79.32Q71.994,79.32,72.42,79.26Q72.846,79.2,73.116,79.044Q73.386,78.888,73.512,78.618Q73.638,78.348,73.638,77.94Q73.638,77.484,73.512,77.214Q73.386,76.944,73.116,76.806Q72.846,76.668,72.42,76.626Q71.994,76.584,71.394,76.584L70.578,76.584L70.578,79.32L71.394,79.32ZM71.694,83.076Q72.33,83.076,72.756,83.016Q73.182,82.956,73.434,82.794Q73.686,82.632,73.788,82.344Q73.89,82.056,73.89,81.612Q73.89,81.228,73.782,80.958Q73.674,80.688,73.422,80.514Q73.17,80.34,72.75,80.256Q72.33,80.172,71.694,80.172L70.578,80.172L70.578,83.076L71.694,83.076Z" fill="#1A1A1A" fill-opacity="1"/></g><g clip-path="url(#master_svg0_29_96027)"><g><path d="M48.615975,12C47.657615,17.749209999999998,37.734375,22.5504,37.734375,36.564499999999995C37.734375,49.2379,44.711895,53.1024,46.149555,53.7016C48.784175,50.9461,48.376175,28.17,48.615975,12ZM47.676275000000004,58.9626L47.676275000000004,54.3512C51.149375,52.7942,49.141775,25.239800000000002,48.962275,15.11841C50.185175,18.35915,58.216274999999996,26.5028,58.216274999999996,36.5646C58.216274999999996,46.6264,53.784475,51.2974,49.951875,54.0518L49.951875,58.7534C49.840075,60.5037,47.819075,60.2576,47.676275000000004,58.9626Z" fill="#90A959" fill-opacity="1"/></g></g><g><rect x="0" y="0" width="96" height="96" rx="8" fill="#000000" fill-opacity="0.44999998807907104"/></g><g><path d="M33.873999999999995,53.476L33.174,54.302Q31.676,52.944,30.724,51.572Q29.786,52.944,28.022,54.385999999999996L27.28,53.574Q28.26,52.874,28.953,52.16Q29.646,51.446,30.136,50.634Q29.142,48.897999999999996,28.806,46.91L28.61,47.288L28.344,47.82L27.532,47.302L27.518,48.366Q27.448,52.257999999999996,27.448,52.397999999999996Q27.42,53.07,27.224,53.434Q27.028,53.798,26.58,53.966Q26.132,54.134,25.292,54.176L24.508,54.218L24.172,53.224000000000004L25.18,53.168Q25.712,53.14,25.978,53.056Q26.244,52.972,26.356,52.775999999999996Q26.468,52.58,26.496,52.188Q26.51,51.88,26.552,49.815Q26.594,47.75,26.608,46.784L22.996,46.784Q22.506,47.568,21.498,48.730000000000004L20.784,48.1Q22.324,46.504,22.87,45.09L23.766,45.37L23.528,45.874L27.546,45.874L27.532,47.176Q28.316,45.79,28.876,44.341Q29.436,42.892,29.66,41.674L30.668,41.912Q30.388,42.962,30.038,43.97L33.454,43.97L33.454,44.936L32.586,44.936Q32.418,46.854,32.123999999999995,48.191Q31.83,49.528,31.27,50.634Q32.278,52.188,33.873999999999995,53.476ZM24.046,45.076L23.136,45.076L23.136,44.152L21.302,44.152L21.302,43.242L23.136,43.242L23.136,41.842L24.046,41.87L24.046,43.242L25.824,43.242L25.824,41.842L26.734,41.87L26.734,43.242L28.54,43.242L28.54,44.152L26.734,44.152L26.734,45.286L25.824,45.286L25.824,44.152L24.046,44.152L24.046,45.076ZM30.668,49.556Q31.046,48.646,31.277,47.525999999999996Q31.508,46.406,31.634,44.936L29.674,44.936L29.478,45.412Q29.814,47.792,30.668,49.556ZM22.212,47.946L25.488,47.946L25.488,52.216L22.212,52.216L22.212,47.946ZM23.038,51.306L24.648,51.306L24.648,48.856L23.038,48.856L23.038,51.306ZM43.282,45.51L43.282,46.392L47.356,46.392L47.356,47.218L38.396,47.218L38.396,46.392L42.302,46.392L42.302,45.51L39.292,45.51L39.292,44.712L42.302,44.712L42.302,43.872L38.872,43.872L38.872,43.046L42.302,43.046L42.302,41.8L43.282,41.828L43.282,43.046L46.796,43.046L46.796,43.872L43.282,43.872L43.282,44.712L46.474,44.712L46.474,45.51L43.282,45.51ZM37.444,45.272Q37.206,44.712,36.688,43.9Q36.17,43.088,35.792,42.64L36.604,42.094Q36.954,42.514,37.493,43.312Q38.032,44.11,38.298,44.6L37.444,45.272ZM37.57,51.978L38.732,50.914L39.11,51.866Q38.746,52.174,38.256,52.601Q37.766,53.028,37.402,53.364000000000004Q37.192,53.532,36.814,53.938L36.198,53.182Q36.394,52.986000000000004,36.485,52.797Q36.576,52.608000000000004,36.576,52.384L36.576,47.246L34.812,47.246L34.812,46.266L37.57,46.266L37.57,51.978ZM39.516,54.204L39.516,48.086L46.068,48.086L46.068,52.86Q46.068,53.35,45.928,53.609Q45.788,53.868,45.445,53.987Q45.102,54.106,44.402,54.162L43.982,54.204L43.688,53.406L44.22,53.364000000000004Q44.64,53.322,44.822,53.259Q45.004,53.196,45.053,53.07Q45.102,52.944,45.102,52.664L45.102,52.272L40.482,52.272L40.482,54.204L39.516,54.204ZM45.102,49.766L45.102,48.912L40.482,48.912L40.482,49.766L45.102,49.766ZM40.482,50.592L40.482,51.446L45.102,51.446L45.102,50.592L40.482,50.592ZM54.384,49.99L55.462,49.99L55.462,50.872L48.532,50.872L48.532,49.99L50.072,49.99L50.072,44.152L49.078,44.152L49.078,43.27L50.072,43.27L50.072,41.87L51.01,41.912L51.01,43.27L53.446,43.27L53.446,41.87L54.384,41.912L54.384,43.27L55.448,43.27L55.448,44.152L54.384,44.152L54.384,49.99ZM56.064,42.542L60.292,42.542L60.292,52.72Q60.292,53.252,60.18,53.504Q60.068,53.756,59.809,53.861000000000004Q59.55,53.966,58.976,54.05L58.262,54.147999999999996L57.898,53.224000000000004L58.654,53.14Q58.99,53.098,59.123,53.049Q59.256,53,59.298,52.86Q59.34,52.72,59.34,52.397999999999996L59.34,50.144L56.932,50.144Q56.82,51.516,56.435,52.419Q56.05,53.322,55.14,54.47L54.244,53.91Q55.14,52.874,55.504,52.104Q55.868,51.334,55.966,50.347Q56.064,49.36,56.064,47.232L56.064,42.542ZM59.34,45.874L59.34,43.494L57.002,43.494L57.002,45.874L59.34,45.874ZM53.446,45.482L53.446,44.152L51.01,44.152L51.01,45.482L53.446,45.482ZM53.446,46.35L51.01,46.35L51.01,47.694L53.446,47.694L53.446,46.35ZM59.34,49.192L59.34,46.812L57.002,46.812L57.002,47.722Q57.002,48.757999999999996,56.988,49.192L59.34,49.192ZM53.446,48.548L51.01,48.548L51.01,49.99L53.446,49.99L53.446,48.548ZM53.208,51.082Q54.09,51.824,54.846,52.622L54.23,53.364000000000004Q53.964,53.028,53.453,52.531Q52.942,52.034,52.55,51.726L53.208,51.082ZM48.77,53.574Q49.372,53.098,49.974,52.44Q50.576,51.782,50.982,51.124L51.752,51.712Q51.024,52.748,49.568,54.26L48.77,53.574ZM66.55,42.416Q66.032,43.186,65.031,44.229Q64.03,45.272,63.092,46.084L62.406,45.286Q63.274,44.614,64.268,43.564Q65.262,42.514,65.794,41.744L66.55,42.416ZM74.838,47.218L72.64,47.218L72.64,48.8L74.488,48.8L74.488,49.752L72.64,49.752L72.64,52.482Q72.64,53.153999999999996,72.493,53.49Q72.346,53.826,71.94,53.987Q71.534,54.147999999999996,70.68,54.218L69.938,54.274L69.616,53.294L70.442,53.238Q70.96,53.196,71.191,53.112Q71.422,53.028,71.499,52.832Q71.576,52.635999999999996,71.576,52.216L71.576,49.752L66.354,49.752L66.354,48.8L71.576,48.8L71.576,47.218L66.06,47.218L66.06,46.266L69.728,46.266L69.728,44.53L66.928,44.53L66.928,43.564L69.728,43.564L69.728,41.828L70.82,41.87L70.82,43.564L73.928,43.564L73.928,44.53L70.82,44.53L70.82,46.266L74.838,46.266L74.838,47.218ZM66.41,45.51Q65.99000000000001,46.28,65.22,47.316L65.22,54.385999999999996L64.24000000000001,54.385999999999996L64.24000000000001,48.519999999999996Q63.442,49.416,62.756,50.018L62.112,49.22Q62.98,48.506,64.00200000000001,47.274Q65.024,46.042,65.612,45.019999999999996L66.41,45.51ZM67.768,50.018Q68.188,50.41,68.769,51.019Q69.35,51.628,69.63,52.006L68.916,52.86Q68.608,52.384,68.048,51.733000000000004Q67.488,51.082,67.082,50.704L67.768,50.018Z" fill="#FFFFFF" fill-opacity="1"/></g></g></svg>