<svg width="96" height="96" viewBox="0 0 96 96" fill="none" xmlns="http://www.w3.org/2000/svg">
    <g clip-path="url(#clip0_52_2)">
        <path d="M88 0H8C3.58172 0 0 3.58172 0 8V88C0 92.4183 3.58172 96 8 96H88C92.4183 96 96 92.4183 96 88V8C96 3.58172 92.4183 0 88 0Z" fill="#F5F5F5"/>
        <path d="M17.036 75.672H19.352C19.936 75.672 20.424 75.724 20.816 75.828C21.208 75.932 21.522 76.092 21.758 76.308C21.994 76.524 22.16 76.8 22.256 77.136C22.352 77.472 22.4 77.872 22.4 78.336C22.4 78.824 22.342 79.24 22.226 79.584C22.11 79.928 21.93 80.208 21.686 80.424C21.442 80.64 21.126 80.798 20.738 80.898C20.35 80.998 19.888 81.048 19.352 81.048H18.116V84H17.036V75.672ZM19.256 80.148C19.64 80.148 19.964 80.12 20.228 80.064C20.492 80.008 20.702 79.91 20.858 79.77C21.014 79.63 21.126 79.444 21.194 79.212C21.262 78.98 21.296 78.688 21.296 78.336C21.296 78.016 21.262 77.746 21.194 77.526C21.126 77.306 21.014 77.128 20.858 76.992C20.702 76.856 20.492 76.758 20.228 76.698C19.964 76.638 19.64 76.608 19.256 76.608H18.116V80.148H19.256ZM26.804 84.12C26.324 84.12 25.898 84.066 25.526 83.958C25.154 83.85 24.84 83.666 24.584 83.406C24.328 83.146 24.134 82.802 24.002 82.374C23.87 81.946 23.804 81.408 23.804 80.76C23.804 80.112 23.87 79.574 24.002 79.146C24.134 78.718 24.328 78.374 24.584 78.114C24.84 77.854 25.154 77.67 25.526 77.562C25.898 77.454 26.324 77.4 26.804 77.4C27.284 77.4 27.71 77.454 28.082 77.562C28.454 77.67 28.766 77.854 29.018 78.114C29.27 78.374 29.462 78.718 29.594 79.146C29.726 79.574 29.792 80.112 29.792 80.76C29.792 81.408 29.726 81.946 29.594 82.374C29.462 82.802 29.27 83.146 29.018 83.406C28.766 83.666 28.454 83.85 28.082 83.958C27.71 84.066 27.284 84.12 26.804 84.12ZM26.804 83.244C27.172 83.244 27.478 83.204 27.722 83.124C27.966 83.044 28.16 82.908 28.304 82.716C28.448 82.524 28.55 82.268 28.61 81.948C28.67 81.628 28.7 81.232 28.7 80.76C28.7 80.288 28.668 79.892 28.604 79.572C28.54 79.252 28.434 78.996 28.286 78.804C28.138 78.612 27.942 78.474 27.698 78.39C27.454 78.306 27.156 78.264 26.804 78.264C26.444 78.264 26.142 78.306 25.898 78.39C25.654 78.474 25.458 78.612 25.31 78.804C25.162 78.996 25.058 79.252 24.998 79.572C24.938 79.892 24.908 80.288 24.908 80.76C24.908 81.232 24.94 81.628 25.004 81.948C25.068 82.268 25.176 82.524 25.328 82.716C25.48 82.908 25.676 83.044 25.916 83.124C26.156 83.204 26.452 83.244 26.804 83.244ZM33.104 84.072C32.944 84.072 32.774 84.066 32.594 84.054C32.414 84.042 32.236 84.028 32.06 84.012C31.884 83.996 31.722 83.974 31.574 83.946C31.426 83.918 31.308 83.892 31.22 83.868V82.98C31.332 83.012 31.466 83.044 31.622 83.076C31.778 83.108 31.94 83.136 32.108 83.16C32.276 83.184 32.446 83.202 32.618 83.214C32.79 83.226 32.948 83.232 33.092 83.232C33.588 83.232 33.962 83.162 34.214 83.022C34.466 82.882 34.592 82.62 34.592 82.236C34.592 82.044 34.574 81.886 34.538 81.762C34.502 81.638 34.432 81.534 34.328 81.45C34.224 81.366 34.078 81.292 33.89 81.228C33.702 81.164 33.452 81.096 33.14 81.024C32.78 80.944 32.484 80.852 32.252 80.748C32.02 80.644 31.836 80.52 31.7 80.376C31.564 80.232 31.468 80.06 31.412 79.86C31.356 79.66 31.328 79.424 31.328 79.152C31.328 78.624 31.522 78.2 31.91 77.88C32.298 77.56 32.88 77.4 33.656 77.4C33.968 77.4 34.278 77.42 34.586 77.46C34.894 77.5 35.128 77.552 35.288 77.616L35.216 78.492C35.032 78.42 34.804 78.36 34.532 78.312C34.26 78.264 33.972 78.24 33.668 78.24C33.212 78.24 32.87 78.304 32.642 78.432C32.414 78.56 32.3 78.808 32.3 79.176C32.3 79.344 32.318 79.48 32.354 79.584C32.39 79.688 32.452 79.778 32.54 79.854C32.628 79.93 32.752 79.994 32.912 80.046C33.072 80.098 33.28 80.152 33.536 80.208C33.904 80.296 34.218 80.39 34.478 80.49C34.738 80.59 34.948 80.714 35.108 80.862C35.268 81.01 35.384 81.192 35.456 81.408C35.528 81.624 35.564 81.888 35.564 82.2C35.564 82.848 35.354 83.322 34.934 83.622C34.514 83.922 33.904 84.072 33.104 84.072ZM39.368 83.208C39.512 83.208 39.638 83.202 39.746 83.19C39.854 83.178 39.964 83.16 40.076 83.136V84.012C39.948 84.028 39.828 84.042 39.716 84.054C39.604 84.066 39.48 84.072 39.344 84.072C38.984 84.072 38.682 84.046 38.438 83.994C38.194 83.942 37.994 83.84 37.838 83.688C37.682 83.536 37.57 83.326 37.502 83.058C37.434 82.79 37.4 82.444 37.4 82.02V78.384H36.44V77.52H37.4V75.984H38.432V77.52H40.04V78.384H38.432V81.96C38.432 82.216 38.444 82.424 38.468 82.584C38.492 82.744 38.538 82.87 38.606 82.962C38.674 83.054 38.768 83.118 38.888 83.154C39.008 83.19 39.168 83.208 39.368 83.208ZM46.844 77.52V83.544C46.844 84.44 46.59 85.14 46.082 85.644C45.574 86.148 44.772 86.4 43.676 86.4C43.396 86.4 43.116 86.384 42.836 86.352C42.556 86.32 42.312 86.284 42.104 86.244V85.368C42.592 85.464 43.12 85.512 43.688 85.512C44.408 85.512 44.942 85.352 45.29 85.032C45.638 84.712 45.812 84.18 45.812 83.436V82.788C45.676 83.172 45.448 83.47 45.128 83.682C44.808 83.894 44.336 84 43.712 84C43.168 84 42.724 83.92 42.38 83.76C42.036 83.6 41.762 83.376 41.558 83.088C41.354 82.8 41.214 82.454 41.138 82.05C41.062 81.646 41.024 81.196 41.024 80.7C41.024 80.252 41.062 79.828 41.138 79.428C41.214 79.028 41.354 78.678 41.558 78.378C41.762 78.078 42.036 77.84 42.38 77.664C42.724 77.488 43.168 77.4 43.712 77.4C44.04 77.4 44.322 77.434 44.558 77.502C44.794 77.57 44.994 77.662 45.158 77.778C45.322 77.894 45.456 78.034 45.56 78.198C45.664 78.362 45.748 78.54 45.812 78.732V77.52H46.844ZM43.856 83.136C44.248 83.136 44.572 83.082 44.828 82.974C45.084 82.866 45.288 82.708 45.44 82.5C45.592 82.292 45.698 82.036 45.758 81.732C45.818 81.428 45.848 81.084 45.848 80.7C45.848 80.332 45.818 79.996 45.758 79.692C45.698 79.388 45.592 79.132 45.44 78.924C45.288 78.716 45.084 78.554 44.828 78.438C44.572 78.322 44.248 78.264 43.856 78.264C43.464 78.264 43.154 78.332 42.926 78.468C42.698 78.604 42.524 78.784 42.404 79.008C42.284 79.232 42.208 79.492 42.176 79.788C42.144 80.084 42.128 80.388 42.128 80.7C42.128 81.036 42.146 81.352 42.182 81.648C42.218 81.944 42.296 82.202 42.416 82.422C42.536 82.642 42.71 82.816 42.938 82.944C43.166 83.072 43.472 83.136 43.856 83.136ZM52.244 77.4L52.208 78.336H52.064C51.856 78.336 51.652 78.356 51.452 78.396C51.252 78.436 51.064 78.51 50.888 78.618C50.712 78.726 50.552 78.872 50.408 79.056C50.264 79.24 50.148 79.476 50.06 79.764V84H49.028V77.52H50.06V78.696C50.164 78.424 50.292 78.204 50.444 78.036C50.596 77.868 50.764 77.736 50.948 77.64C51.132 77.544 51.326 77.48 51.53 77.448C51.734 77.416 51.932 77.4 52.124 77.4H52.244ZM58.496 80.112C58.496 80.2 58.49 80.31 58.478 80.442C58.466 80.574 58.452 80.716 58.436 80.868L54.044 81.144C54.044 81.496 54.08 81.802 54.152 82.062C54.224 82.322 54.34 82.536 54.5 82.704C54.66 82.872 54.872 82.998 55.136 83.082C55.4 83.166 55.728 83.208 56.12 83.208C56.48 83.208 56.846 83.168 57.218 83.088C57.59 83.008 57.9 82.908 58.148 82.788V83.736C58.052 83.784 57.928 83.832 57.776 83.88C57.624 83.928 57.452 83.97 57.26 84.006C57.068 84.042 56.862 84.07 56.642 84.09C56.422 84.11 56.196 84.12 55.964 84.12C55.484 84.12 55.058 84.066 54.686 83.958C54.314 83.85 54 83.666 53.744 83.406C53.488 83.146 53.294 82.802 53.162 82.374C53.03 81.946 52.964 81.408 52.964 80.76C52.964 80.112 53.03 79.574 53.162 79.146C53.294 78.718 53.486 78.374 53.738 78.114C53.99 77.854 54.298 77.67 54.662 77.562C55.026 77.454 55.44 77.4 55.904 77.4C56.456 77.4 56.902 77.482 57.242 77.646C57.582 77.81 57.844 78.022 58.028 78.282C58.212 78.542 58.336 78.834 58.4 79.158C58.464 79.482 58.496 79.8 58.496 80.112ZM57.476 80.124C57.476 79.876 57.46 79.638 57.428 79.41C57.396 79.182 57.326 78.982 57.218 78.81C57.11 78.638 56.952 78.502 56.744 78.402C56.536 78.302 56.256 78.252 55.904 78.252C55.528 78.252 55.222 78.3 54.986 78.396C54.75 78.492 54.564 78.632 54.428 78.816C54.292 79 54.196 79.224 54.14 79.488C54.084 79.752 54.052 80.048 54.044 80.376L57.476 80.124ZM62.432 84.12C62.176 84.12 61.922 84.11 61.67 84.09C61.418 84.07 61.182 84.044 60.962 84.012C60.742 83.98 60.546 83.946 60.374 83.91C60.202 83.874 60.064 83.836 59.96 83.796V82.8C60.08 82.848 60.232 82.894 60.416 82.938C60.6 82.982 60.8 83.022 61.016 83.058C61.232 83.094 61.46 83.122 61.7 83.142C61.94 83.162 62.184 83.172 62.432 83.172C63.056 83.172 63.528 83.068 63.848 82.86C64.168 82.652 64.328 82.288 64.328 81.768C64.328 81.512 64.302 81.298 64.25 81.126C64.198 80.954 64.1 80.808 63.956 80.688C63.812 80.568 63.616 80.464 63.368 80.376C63.12 80.288 62.8 80.196 62.408 80.1C61.984 79.996 61.624 79.888 61.328 79.776C61.032 79.664 60.792 79.522 60.608 79.35C60.424 79.178 60.29 78.968 60.206 78.72C60.122 78.472 60.08 78.164 60.08 77.796C60.08 77.036 60.306 76.47 60.758 76.098C61.21 75.726 61.908 75.54 62.852 75.54C63.052 75.54 63.254 75.548 63.458 75.564C63.662 75.58 63.858 75.602 64.046 75.63C64.234 75.658 64.406 75.69 64.562 75.726C64.718 75.762 64.844 75.8 64.94 75.84V76.824C64.7 76.736 64.388 76.658 64.004 76.59C63.62 76.522 63.24 76.488 62.864 76.488C62.576 76.488 62.324 76.506 62.108 76.542C61.892 76.578 61.712 76.644 61.568 76.74C61.424 76.836 61.318 76.968 61.25 77.136C61.182 77.304 61.148 77.524 61.148 77.796C61.148 77.988 61.166 78.154 61.202 78.294C61.238 78.434 61.316 78.556 61.436 78.66C61.556 78.764 61.728 78.858 61.952 78.942C62.176 79.026 62.476 79.112 62.852 79.2C63.316 79.312 63.71 79.43 64.034 79.554C64.358 79.678 64.62 79.836 64.82 80.028C65.02 80.22 65.164 80.454 65.252 80.73C65.34 81.006 65.384 81.348 65.384 81.756C65.384 82.572 65.134 83.17 64.634 83.55C64.134 83.93 63.4 84.12 62.432 84.12ZM74.108 79.836C74.108 80.532 74.056 81.128 73.952 81.624C73.848 82.12 73.692 82.532 73.484 82.86C73.276 83.188 73.02 83.446 72.716 83.634C72.412 83.822 72.056 83.952 71.648 84.024L73.028 85.74H71.744L70.58 84.12H70.52C69.928 84.12 69.41 84.054 68.966 83.922C68.522 83.79 68.148 83.562 67.844 83.238C67.54 82.914 67.312 82.476 67.16 81.924C67.008 81.372 66.932 80.676 66.932 79.836C66.932 78.996 67.008 78.302 67.16 77.754C67.312 77.206 67.54 76.768 67.844 76.44C68.148 76.112 68.522 75.882 68.966 75.75C69.41 75.618 69.928 75.552 70.52 75.552C71.112 75.552 71.632 75.618 72.08 75.75C72.528 75.882 72.902 76.112 73.202 76.44C73.502 76.768 73.728 77.206 73.88 77.754C74.032 78.302 74.108 78.996 74.108 79.836ZM70.52 83.196C71.032 83.196 71.448 83.132 71.768 83.004C72.088 82.876 72.338 82.676 72.518 82.404C72.698 82.132 72.822 81.784 72.89 81.36C72.958 80.936 72.992 80.428 72.992 79.836C72.992 79.26 72.958 78.76 72.89 78.336C72.822 77.912 72.698 77.562 72.518 77.286C72.338 77.01 72.088 76.804 71.768 76.668C71.448 76.532 71.032 76.464 70.52 76.464C70.016 76.464 69.604 76.532 69.284 76.668C68.964 76.804 68.714 77.01 68.534 77.286C68.354 77.562 68.23 77.912 68.162 78.336C68.094 78.76 68.06 79.26 68.06 79.836C68.06 80.428 68.094 80.936 68.162 81.36C68.23 81.784 68.354 82.132 68.534 82.404C68.714 82.676 68.964 82.876 69.284 83.004C69.604 83.132 70.016 83.196 70.52 83.196ZM80.78 83.028V84H76.088V75.672H77.168V83.028H80.78Z" fill="#1A1A1A"/>
        <mask id="mask0_52_2" style="mask-type:luminance" maskUnits="userSpaceOnUse" x="24" y="12" width="48" height="48">
            <path d="M72 12H24V60H72V12Z" fill="white"/>
        </mask>
        <g mask="url(#mask0_52_2)">
            <path d="M27.9276 50.5257H24.9294V55.6225H25.7389V53.4639H27.9276C28.2075 53.4775 28.4832 53.3926 28.7071 53.224C28.8953 53.0459 28.9942 52.7931 28.9769 52.5345V51.4551C28.9769 51.0354 28.797 50.5257 27.9276 50.5257ZM27.9276 52.6844H25.7389V51.3052H28.0775V52.3846H27.9276V52.6844ZM32.6946 51.665H30.8358C30.2513 51.5874 29.7432 52.0664 29.7864 52.6544V54.6331C29.7864 55.0829 29.9663 55.6225 30.8358 55.6225H32.6946C33.564 55.6225 33.7439 55.0829 33.7439 54.6331V52.6544C33.7439 52.2047 33.564 51.665 32.6946 51.665ZM30.6559 52.6544H32.7546V54.6331H30.6559V52.6544ZM37.6714 51.665H35.9925C35.4081 51.5874 34.9 52.0664 34.9431 52.6544V53.0741C34.8996 53.6457 35.3946 54.1116 35.9625 54.0335H37.9712V54.4832H35.6927V54.0635H34.7933V54.4832C34.7933 54.933 34.9731 55.4726 35.8426 55.4726H37.6714C38.5409 55.4726 38.7208 54.933 38.7208 54.4832V54.0335C38.7208 53.6138 38.5409 53.0741 37.6714 53.0741H35.6927V52.6544H37.8213V53.0441H38.6908V52.6544C38.6908 52.2047 38.5109 51.665 37.6415 51.665H37.6714ZM40.9394 50.4957H40.0699V51.665H39.6202V52.5045H40.0699V54.6332C40.0055 55.2166 40.5081 55.7043 41.0893 55.6225H42.1686V54.7831H40.9694V52.6544H42.1986V51.8149H40.9394V50.4957ZM45.7664 51.665H43.9375C43.0681 51.665 42.8882 52.2047 42.8882 52.6544V54.6331C42.8882 55.0829 43.0681 55.6225 43.9375 55.6225H45.9463V56.462H43.7876V56.0723H42.8882V56.462C42.8882 56.9117 43.0681 57.4514 43.9375 57.4514H45.7664C46.4559 57.4514 46.8157 57.1216 46.8157 56.462V52.6544C46.8157 52.2047 46.6358 51.665 45.7664 51.665ZM43.7576 52.6544H45.8863V54.7831H43.7876V52.8043L43.7576 52.6544ZM48.8844 51.725H47.985V55.6825H48.8544V52.6844H50.0837V51.8449H48.8844V51.725ZM53.3816 51.725H51.5228C50.6533 51.725 50.4734 52.2646 50.4734 52.7144V54.6931C50.4734 55.1428 50.6533 55.6825 51.5228 55.6825H53.3816C53.966 55.7602 54.4741 55.2811 54.431 54.6931V54.3034H53.5315V54.6931H51.3729V53.9736H54.371V52.5644C54.4354 51.981 53.9329 51.4933 53.3516 51.5751L53.3816 51.725ZM51.5228 52.5644H53.5015V53.1341H51.3429V52.5644H51.5228ZM61.2967 50.5857H59.2879C58.4485 50.5857 58.2386 51.0954 58.2386 51.5151V52.5644C58.2386 52.9842 58.4185 53.4939 59.2879 53.4939H61.4466V54.6032H59.138V54.2734H58.2985V54.6931C58.2985 55.1129 58.4784 55.6225 59.3179 55.6225H61.3267C62.1961 55.6225 62.376 55.1129 62.376 54.6931V53.5838C62.376 53.1341 62.1961 52.6244 61.3267 52.6244H59.138V51.5751C59.138 51.4752 59.198 51.4252 59.3179 51.4252H61.4766V51.8149H62.346V51.4252C62.346 51.0054 62.1661 50.4957 61.2967 50.4957V50.5857ZM66.2736 50.5857H64.2648C63.9849 50.5721 63.7091 50.657 63.4853 50.8255C63.2971 51.0037 63.1981 51.2565 63.2155 51.5151V54.7531C63.2155 55.1728 63.3954 55.6825 64.2648 55.6825H64.8345V56.2222H65.7039V55.6825H66.2736C67.143 55.6825 67.3229 55.1728 67.3229 54.7531V51.4551C67.3229 51.0354 67.143 50.5257 66.2736 50.5257V50.5857ZM64.8345 53.9736V54.7831H64.1149V51.4551C64.1149 51.3552 64.1749 51.3052 64.2948 51.3052H66.4534V54.5432H65.7339V53.9736H64.8644H64.8345ZM69.0618 54.7831V50.5257H68.1924V55.6225H71.1905V54.813L69.0618 54.7831ZM63.5153 36.1947C63.5153 35.8349 62.8557 34.9355 61.2367 35.2653C60.6393 35.4205 60.025 35.5011 59.4079 35.5051C60.9757 33.0114 62.1772 30.3055 62.9756 27.4701C63.4853 25.5513 64.1449 22.1035 62.9756 20.4845C61.1669 18.1427 58.3482 16.8058 55.3904 16.8867C53.9002 16.8382 52.412 17.0305 50.9831 17.4564C50.2133 17.3 49.4301 17.2197 48.6446 17.2165C47.2177 17.1766 45.8073 17.5292 44.5671 18.2359C41.4794 16.9687 37.9962 17.0888 35.0031 18.5657C32.9147 20.3418 31.9223 23.0906 32.3948 25.7912C32.7034 28.3589 33.2658 30.8897 34.0737 33.3465C34.5008 34.9001 35.0834 36.4068 35.8126 37.8436C36.2936 39.172 37.2872 40.2519 38.5709 40.8418C39.5258 41.1716 40.5853 40.9271 41.2992 40.2122C41.7371 40.7207 42.3249 41.0776 42.9781 41.2315C43.8266 41.4255 44.708 41.4255 45.5565 41.2315C46.014 41.1553 46.4583 41.014 46.8757 40.8118V41.5313C46.8906 41.781 46.8906 42.0313 46.8757 42.2809C46.8762 43.5572 47.0477 44.8277 47.3854 46.0585V46.2384C47.5796 46.9733 47.962 47.6449 48.4947 48.1872C49.1055 48.814 49.9598 49.1425 50.8332 49.0866C51.2219 49.1269 51.6138 49.1269 52.0025 49.0866C53.3975 48.9257 54.6655 48.1996 55.5103 47.0779C56.6409 45.0618 57.1519 42.757 56.9794 40.452V39.8824H57.3092C58.5577 39.9545 59.8067 39.7497 60.9669 39.2827C61.7464 38.9829 64.025 37.7837 63.5153 36.1947Z" fill="#333333"/>
            <path d="M55.9301 26.5107H55.6902C55.3005 26.5107 54.9407 26.7206 54.9707 26.9605C55.0978 27.2458 55.3779 27.4325 55.6902 27.4402C55.933 27.3582 56.1431 27.2006 56.2898 26.9904C56.3958 26.8872 56.4599 26.7484 56.4697 26.6007C56.3098 26.5407 56.13 26.5107 55.9301 26.5107ZM46.3061 27.2003C46.3061 27.0404 46.2261 26.9105 46.0662 26.8106C45.8968 26.7935 45.726 26.7935 45.5565 26.8106H45.3167C44.9569 26.8106 44.7171 26.8106 44.6571 27.1403C44.6605 27.2748 44.714 27.4031 44.807 27.5001C44.9573 27.7273 45.1971 27.8799 45.4666 27.9199C45.9167 28.0212 46.3374 27.6606 46.3061 27.2003Z" fill="white"/>
            <path d="M62.6459 36.4048C62.496 35.9851 62.0762 35.9851 61.3267 35.9851C60.2867 36.3392 59.1587 36.3392 58.1187 35.9851C59.8818 33.2855 61.1979 30.3193 62.0163 27.2005C62.8728 25.1892 62.8728 22.9158 62.0163 20.9045C60.316 18.7966 57.7384 17.5908 55.0306 17.6365C53.657 17.6353 52.2915 17.8477 50.9832 18.2661C50.2151 18.0952 49.4314 18.0048 48.6446 17.9963C47.2397 17.9602 45.8578 18.358 44.6871 19.1356C43.3979 18.6859 38.6909 17.1268 35.6927 19.1356C33.8041 20.7417 32.9132 23.2318 33.3542 25.6715C33.6298 28.1482 34.1213 30.596 34.8233 32.987C36.0225 37.0644 37.4017 39.343 38.7808 39.8227H39.3504C40.0326 39.8072 40.676 39.5019 41.1193 38.9832C42.2586 37.6341 43.3379 36.4648 43.6677 35.9851C44.2243 36.2767 44.8388 36.4406 45.4666 36.4648V36.6447L45.1968 36.9745C44.7171 37.5441 44.6271 37.694 43.218 37.9638C42.8582 37.9638 41.7789 38.2936 41.7789 38.9832C41.7789 39.6728 42.6184 40.0326 43.1281 40.1525C43.5961 40.2841 44.0812 40.3448 44.5672 40.3324C45.6712 40.3568 46.7431 39.9602 47.5653 39.2231C47.4578 41.4603 47.5985 43.7026 47.985 45.9089C48.3732 47.269 49.5721 48.2401 50.9832 48.3374C51.3308 48.337 51.6757 48.2761 52.0025 48.1575C53.959 47.998 55.5029 46.4286 55.6303 44.4698C55.8401 43.2705 56.1999 40.4223 56.3498 38.9233C56.7877 39.0518 57.2427 39.1124 57.699 39.1031C58.7322 39.149 59.761 38.9432 60.6971 38.5035C61.4166 38.1138 62.9757 37.1843 62.6459 36.4048ZM57.1893 30.6484C57.4836 31.8314 57.4104 33.0759 56.9794 34.2162C56.8576 34.0025 56.7475 33.7823 56.6496 33.5566C56.6496 33.3467 56.4098 33.1369 56.2299 32.7471C55.4204 31.338 53.5616 27.9801 54.5509 26.7508C54.9707 26.1512 55.9301 25.9413 57.5491 26.1512C57.5788 26.6304 57.5788 27.111 57.5491 27.5903C57.4677 28.0864 57.4177 28.5871 57.3992 29.0894C57.2778 29.6008 57.2075 30.1231 57.1893 30.6484ZM55.1805 18.476C57.609 18.4284 59.9145 19.5422 61.3867 21.4741C62.496 22.9132 61.3867 29.5991 57.609 35.2655L57.3992 34.9957C58.1191 33.6557 58.3218 32.098 57.9688 30.6184C57.939 30.0892 57.939 29.5587 57.9688 29.0294C57.9114 28.5615 57.9114 28.0883 57.9688 27.6203C58.0138 27.0215 58.0138 26.4202 57.9688 25.8214C57.5908 24.2743 56.8393 22.8434 55.7802 21.654C54.8333 20.5197 53.6312 19.6258 52.2724 19.0456C53.2104 18.7211 54.1893 18.5293 55.1805 18.476ZM40.4597 38.3836C39.7102 39.283 39.2005 38.9832 38.9907 38.9832C37.9113 38.6234 36.6521 36.3748 35.5428 32.7471C34.8247 30.4181 34.3131 28.0303 34.0138 25.6115C33.6275 23.4881 34.3777 21.317 35.9925 19.8851C38.4824 18.7348 41.3379 18.6697 43.8776 19.7052C42.2012 21.7585 41.3087 24.3405 41.3592 26.9907C41.3242 27.0772 41.3242 27.174 41.3592 27.2605V27.5003C41.4787 28.7468 41.4787 30.0017 41.3592 31.248C41.1412 32.6715 41.5825 34.1167 42.5584 35.1756L42.9482 35.5054C42.5285 35.9851 41.5391 37.1244 40.4597 38.3836ZM43.188 34.6659C42.3534 33.821 41.9648 32.6327 42.1387 31.4579C42.2733 30.1522 42.2733 28.8361 42.1387 27.5303V27.2305C43.1145 26.5519 44.2781 26.1954 45.4666 26.2111C46.0686 26.3286 46.5206 26.8296 46.5759 27.4404C47.1838 29.4221 47.0342 31.559 46.1562 33.4367L45.8864 34.1262V34.3361C45.8864 34.7559 45.6165 35.1756 45.4666 35.6253C44.6044 35.6481 43.7742 35.2986 43.188 34.6659ZM47.4154 38.0238C46.8035 38.9981 45.7167 39.5701 44.5672 39.5229C44.1486 39.5671 43.7265 39.5671 43.308 39.5229C43.0481 39.3984 42.8218 39.2133 42.6484 38.9832C42.8882 38.9832 43.1281 38.8033 43.3679 38.6534C44.9869 38.3236 45.2268 38.0838 45.7964 37.3942L46.1562 36.9145C46.2049 36.9305 46.2574 36.9305 46.3061 36.9145C46.516 36.7046 46.6359 36.7046 46.6659 36.7046C46.764 36.6779 46.8675 36.6779 46.9657 36.7046C47.2272 36.8354 47.4148 37.0782 47.4754 37.3642V37.5141C47.5556 37.6813 47.5322 37.8798 47.4154 38.0238ZM51.9126 47.318C50.5225 47.8021 49.0184 46.9803 48.6746 45.5491C48.3174 43.1079 48.2069 40.637 48.3448 38.1737C48.4644 37.8548 48.4644 37.5033 48.3448 37.1843C48.2128 36.665 47.8631 36.2279 47.3854 35.9851C47.1779 35.9405 46.9633 35.9405 46.7558 35.9851H46.426C46.426 35.6253 46.6659 35.2056 46.8158 34.7559V34.546L47.0856 33.8864C48.0327 31.8051 48.1925 29.4508 47.5353 27.2605C47.3431 25.9329 46.0513 25.0578 44.7471 25.3717C43.9841 25.4777 43.2443 25.7108 42.5584 26.0612L42.1687 26.2711C42.2482 24.0814 43.0374 21.9769 44.4173 20.2749C45.5249 19.1943 47.0411 18.638 48.5847 18.7458C52.5134 18.8793 55.9394 21.4549 57.1593 25.1918C55.4504 24.9819 54.1612 25.1918 53.7115 26.1512C52.4523 27.9201 54.401 31.4879 55.3305 33.1668C55.5403 33.4966 55.6602 33.7665 55.7202 33.8564C55.9648 34.4346 56.2986 34.9708 56.7096 35.4454L56.9794 35.9851C56.5297 35.9851 55.5403 36.4048 55.6303 38.1437C55.6303 38.9832 55.0606 42.9707 54.8208 44.4098C54.6705 45.9494 53.4522 47.1678 51.9126 47.318ZM60.3373 37.784C59.6164 38.0912 58.8423 38.2542 58.0587 38.2637C57.5468 38.3136 57.0305 38.231 56.5597 38.0238C56.5597 36.9445 56.9494 36.8246 57.3692 36.7046H57.699C58.94 37.2117 60.3202 37.2648 61.5965 36.8545H61.7464C61.3405 37.2517 60.8622 37.5672 60.3373 37.784Z" fill="white"/>
            <path d="M47.5053 37.754V37.6041C47.4448 37.318 47.2572 37.0752 46.9956 36.9445C46.8975 36.9177 46.794 36.9177 46.6958 36.9445L46.336 37.1544C46.2874 37.1704 46.2348 37.1704 46.1861 37.1544L45.8264 37.6341C45.2567 38.3236 45.0169 38.5635 43.3979 38.8933C43.128 38.9832 42.8882 38.9832 42.6483 38.9832C42.848 39.1163 43.0723 39.208 43.3079 39.2531C43.7265 39.2972 44.1486 39.2972 44.5672 39.2531C45.7167 39.3002 46.8035 38.7283 47.4154 37.754C47.4453 37.7568 47.4754 37.7568 47.5053 37.754ZM61.5965 36.9145C60.3202 37.3247 58.94 37.2717 57.6989 36.7646H57.3691C56.9494 36.7646 56.5297 37.0045 56.5597 38.0838C57.0305 38.291 57.5467 38.3736 58.0587 38.3236C58.8423 38.3142 59.6164 38.1512 60.3373 37.8439C60.8621 37.6271 61.3405 37.3116 61.7464 36.9145H61.5965ZM42.5584 35.2356C41.5825 34.1767 41.1412 32.7314 41.3591 31.308C41.4786 30.0617 41.4786 28.8067 41.3591 27.5603V27.3205C41.3241 27.2339 41.3241 27.1372 41.3591 27.0507C41.3015 24.3902 42.1945 21.7964 43.8776 19.7352C41.342 18.6902 38.4865 18.7445 35.9925 19.8851C34.3573 21.3291 33.6051 23.5286 34.0137 25.6715C34.313 28.0903 34.8247 30.4781 35.5428 32.8071C36.6821 36.4348 37.9413 38.6834 38.9906 38.9832C39.1705 38.9832 39.6802 39.2231 40.4297 38.3236C41.1793 37.4242 42.4984 35.9551 42.9182 35.5054L42.5584 35.2356Z" fill="#33698E"/>
            <path d="M56.9794 35.985L56.7095 35.6252C56.2986 35.1506 55.9647 34.6144 55.7202 34.0362C55.6002 33.7963 55.4703 33.5664 55.3304 33.3466C54.401 31.6677 52.3323 28.0999 53.7114 26.331C54.2811 25.4915 55.4503 25.1617 57.1593 25.3716C55.9881 21.6074 52.5828 18.9815 48.6446 18.8057C47.101 18.6979 45.5848 19.2542 44.4772 20.3347C43.0973 22.0368 42.3081 24.1413 42.2286 26.331L42.6183 26.1211C43.3042 25.7706 44.044 25.5375 44.807 25.4315C46.1112 25.1176 47.403 25.9927 47.5952 27.3204C48.2524 29.5106 48.0926 31.8649 47.1455 33.9462L46.8757 34.6058V34.8157C46.7258 35.2654 46.5759 35.6851 46.4859 36.0449H46.8157C47 35.9885 47.1934 35.9681 47.3853 35.985C47.8564 36.2211 48.2051 36.6461 48.3447 37.1542C48.4643 37.4732 48.4643 37.8247 48.3447 38.1436C48.2069 40.6069 48.3174 43.0778 48.6745 45.519C49.0183 46.9502 50.5225 47.772 51.9125 47.2879C53.5183 47.1728 54.7955 45.8955 54.9107 44.2898C55.1505 42.8507 55.6602 38.8632 55.7202 38.0237C55.6002 36.2848 56.5896 35.985 56.9794 35.985Z" fill="#33698E"/>
            <path d="M55.1805 18.4757C54.2533 18.4451 53.326 18.5358 52.4222 18.7455C53.7811 19.3258 54.9832 20.2196 55.93 21.3539C56.9892 22.5433 57.7407 23.9742 58.1187 25.5213C58.1637 26.1201 58.1637 26.7214 58.1187 27.3202C58.0613 27.7881 58.0613 28.2613 58.1187 28.7293C58.0889 29.2585 58.0889 29.789 58.1187 30.3183C58.4717 31.7979 58.2689 33.3556 57.549 34.6956L57.7589 34.9654C61.4166 29.2989 62.6458 22.6131 61.5365 21.174C59.9708 19.3105 57.6087 18.3077 55.1805 18.4757Z" fill="#33698E"/>
            <path d="M57.3091 26.0313C55.8101 25.8215 54.8507 26.0313 54.311 26.6309C53.3216 27.9801 55.1805 31.338 55.9899 32.6272C56.1698 33.017 56.3197 33.2268 56.4097 33.4367C56.5076 33.6624 56.6177 33.8826 56.7395 34.0963C57.2105 32.9684 57.3255 31.7236 57.0693 30.5285C56.9882 30.0131 56.958 29.4909 56.9793 28.9695C56.9978 28.4671 57.0479 27.9665 57.1292 27.4704C57.2191 26.9949 57.2791 26.5143 57.3091 26.0313ZM56.2898 26.9907C56.1443 27.1208 55.9694 27.2134 55.7801 27.2606C55.4809 27.3317 55.1673 27.2271 54.9706 26.9907C54.9706 26.7509 55.3004 26.6309 55.6901 26.541H55.93C56.2298 26.541 56.4696 26.541 56.4696 26.7509C56.431 26.8448 56.3691 26.9273 56.2898 26.9907ZM45.4965 35.6853C45.4965 35.2356 45.7964 34.8158 45.9163 34.3961V34.1862L46.1861 33.4967C47.0641 31.619 47.2137 29.4821 46.6058 27.5004C46.5505 26.8896 46.0985 26.3887 45.4965 26.2712C44.3081 26.2554 43.1444 26.6119 42.1686 27.2905V27.5903C42.3032 28.8961 42.3032 30.2122 42.1686 31.5179C42.0063 32.6682 42.3822 33.8291 43.188 34.6659C43.7701 35.3288 44.6145 35.7017 45.4965 35.6853ZM45.3167 26.6909H45.5565C45.726 26.6739 45.8967 26.6739 46.0662 26.6909C46.306 26.6909 46.336 26.9907 46.306 27.0807C46.2591 27.4502 45.9273 27.7156 45.5565 27.6803C45.287 27.6404 45.0472 27.4878 44.8969 27.2606C44.7884 27.2008 44.7037 27.1055 44.6571 26.9907C44.717 26.8108 44.9869 26.6909 45.3167 26.6909Z" fill="#33698E"/>
        </g>
    </g>
    <defs>
        <clipPath id="clip0_52_2">
            <rect width="96" height="96" fill="white"/>
        </clipPath>
    </defs>
</svg>
